<!DOCTYPE svg PUBLIC "-//W3C//DTD SVG 1.1//EN" "http://www.w3.org/Graphics/SVG/1.1/DTD/svg11.dtd">
<!-- Uploaded to: SVG Repo, www.svgrepo.com, Transformed by: SVG Repo Mixer Tools -->
<svg width="800px" height="800px" viewBox="0 0 16 16" xmlns="http://www.w3.org/2000/svg" fill="#ffffff" class="bi bi-basket2-fill" stroke="#ffffff">
<g id="SVGRepo_bgCarrier" stroke-width="0"/>
<g id="SVGRepo_tracerCarrier" stroke-linecap="round" stroke-linejoin="round"/>
<g id="SVGRepo_iconCarrier"> <path d="M5.929 1.757a.5.5 0 1 0-.858-.514L2.217 6H.5a.5.5 0 0 0-.5.5v1a.5.5 0 0 0 .5.5h.623l1.844 6.456A.75.75 0 0 0 3.69 15h8.622a.75.75 0 0 0 .722-.544L14.877 8h.623a.5.5 0 0 0 .5-.5v-1a.5.5 0 0 0-.5-.5h-1.717L10.93 1.243a.5.5 0 1 0-.858.514L12.617 6H3.383L5.93 1.757zM4 10a1 1 0 0 1 2 0v2a1 1 0 1 1-2 0v-2zm3 0a1 1 0 0 1 2 0v2a1 1 0 1 1-2 0v-2zm4-1a1 1 0 0 1 1 1v2a1 1 0 1 1-2 0v-2a1 1 0 0 1 1-1z"/> </g>
</svg>